<svg width="45" height="45" viewBox="0 0 45 45" fill="none" xmlns="http://www.w3.org/2000/svg">
<path d="M43.5938 42.1875H42.8906C42.7041 42.1875 42.5253 42.2616 42.3934 42.3934C42.2616 42.5253 42.1875 42.7041 42.1875 42.8906C42.1875 43.0771 42.2616 43.2559 42.3934 43.3878C42.5253 43.5197 42.7041 43.5938 42.8906 43.5938H43.5938C43.7802 43.5938 43.9591 43.5197 44.0909 43.3878C44.2228 43.2559 44.2969 43.0771 44.2969 42.8906C44.2969 42.7041 44.2228 42.5253 44.0909 42.3934C43.9591 42.2616 43.7802 42.1875 43.5938 42.1875Z" fill="white"/>
<path d="M30.9375 30.9375C30.751 30.9375 30.5722 31.0116 30.4403 31.1434C30.3085 31.2753 30.2344 31.4541 30.2344 31.6406V40.8691C30.2344 41.0556 30.3085 41.2345 30.4403 41.3663C30.5722 41.4982 30.751 41.5723 30.9375 41.5723C31.124 41.5723 31.3028 41.4982 31.4347 41.3663C31.5665 41.2345 31.6406 41.0556 31.6406 40.8691V31.6406C31.6406 31.4541 31.5665 31.2753 31.4347 31.1434C31.3028 31.0116 31.124 30.9375 30.9375 30.9375Z" fill="white"/>
<path d="M41.9818 39.5807C41.8498 39.449 41.6709 39.375 41.4844 39.375C41.2979 39.375 41.119 39.449 40.9869 39.5807L39.2941 41.2743L31.5545 27.0853C31.4941 26.9743 31.4049 26.8817 31.2963 26.8172C31.1878 26.7527 31.0638 26.7187 30.9375 26.7188H12.6562C12.53 26.7187 12.406 26.7527 12.2974 26.8172C12.1888 26.8817 12.0996 26.9743 12.0393 27.0853L4.29961 41.2743L2.60684 39.5807C2.54151 39.5153 2.46395 39.4635 2.3786 39.4282C2.29324 39.3928 2.20176 39.3746 2.10938 39.3746C2.01699 39.3746 1.92551 39.3928 1.84015 39.4282C1.7548 39.4635 1.67724 39.5153 1.61191 39.5807C1.54659 39.646 1.49477 39.7235 1.45941 39.8089C1.42406 39.8943 1.40586 39.9857 1.40586 40.0781C1.40586 40.1705 1.42406 40.262 1.45941 40.3473C1.49477 40.4327 1.54659 40.5103 1.61191 40.5756L3.22471 42.1875H1.40625C1.21977 42.1875 1.04093 42.2616 0.909066 42.3934C0.777204 42.5253 0.703125 42.7041 0.703125 42.8906C0.703125 43.0771 0.777204 43.2559 0.909066 43.3878C1.04093 43.5197 1.21977 43.5938 1.40625 43.5938H40.7812C40.9677 43.5938 41.1466 43.5197 41.2784 43.3878C41.4103 43.2559 41.4844 43.0771 41.4844 42.8906C41.4844 42.7041 41.4103 42.5253 41.2784 42.3934C41.1466 42.2616 40.9677 42.1875 40.7812 42.1875H40.369L41.9818 40.5756C42.1135 40.4435 42.1875 40.2646 42.1875 40.0781C42.1875 39.8916 42.1135 39.7127 41.9818 39.5807ZM5.40352 42.1875L13.0737 28.125H29.7527L22.0825 42.1875H5.40352ZM23.6848 42.1875L30.9375 28.8905L38.1902 42.1875H23.6848Z" fill="white"/>
<path d="M7.11914 20.3906H16.2598C17.1569 20.3913 18.0203 20.0489 18.6733 19.4337C19.3262 18.8184 19.7192 17.9768 19.7718 17.0812C19.8244 16.1857 19.5327 15.3038 18.9563 14.6164C18.38 13.9289 17.5626 13.4877 16.6715 13.3833C16.3563 12.4786 15.8006 11.6769 15.0642 11.0641C14.3278 10.4513 13.4385 10.0506 12.4916 9.90506C11.5447 9.75947 10.576 9.87447 9.68956 10.2377C8.80308 10.601 8.03226 11.1988 7.4598 11.9669C7.34631 11.9577 7.23275 11.9531 7.11914 11.9531C6.00026 11.9531 4.9272 12.3976 4.13603 13.1888C3.34486 13.98 2.90039 15.053 2.90039 16.1719C2.90039 17.2908 3.34486 18.3638 4.13603 19.155C4.9272 19.9462 6.00026 20.3906 7.11914 20.3906ZM7.11914 13.3594C7.30121 13.3594 7.48285 13.3771 7.66151 13.4121C7.80199 13.4395 7.94749 13.4235 8.07861 13.3661C8.20973 13.3087 8.32024 13.2127 8.3954 13.0909C8.7965 12.4391 9.38196 11.9209 10.0777 11.602C10.7734 11.2831 11.5481 11.1777 12.3037 11.2993C13.0593 11.4208 13.7619 11.7638 14.3225 12.2848C14.8831 12.8058 15.2765 13.4814 15.453 14.2261C15.4911 14.3853 15.5833 14.5263 15.7139 14.6251C15.8444 14.7238 16.0052 14.7742 16.1688 14.7675C16.1989 14.7662 16.2295 14.7656 16.2596 14.7656C16.819 14.7656 17.3556 14.9878 17.7511 15.3834C18.1467 15.779 18.369 16.3155 18.369 16.8749C18.369 17.4344 18.1467 17.9709 17.7511 18.3665C17.3556 18.7621 16.819 18.9843 16.2596 18.9843H7.11914C6.37322 18.9843 5.65785 18.688 5.1304 18.1605C4.60296 17.6331 4.30664 16.9177 4.30664 16.1718C4.30664 15.4259 4.60296 14.7105 5.1304 14.1831C5.65785 13.6556 6.37322 13.3593 7.11914 13.3593V13.3594Z" fill="white"/>
<path d="M35.8594 12.6562C36.6938 12.6562 37.5094 12.4088 38.2032 11.9452C38.897 11.4817 39.4377 10.8228 39.757 10.0519C40.0763 9.28104 40.1598 8.43279 39.9971 7.61443C39.8343 6.79608 39.4325 6.04437 38.8425 5.45436C38.2525 4.86436 37.5008 4.46256 36.6824 4.29978C35.8641 4.137 35.0158 4.22055 34.2449 4.53985C33.4741 4.85916 32.8152 5.39989 32.3516 6.09366C31.888 6.78743 31.6406 7.60308 31.6406 8.43747C31.6419 9.55597 32.0867 10.6283 32.8776 11.4192C33.6685 12.2101 34.7409 12.655 35.8594 12.6562ZM35.8594 5.62497C36.4156 5.62497 36.9594 5.78992 37.4219 6.09896C37.8844 6.408 38.2449 6.84726 38.4578 7.36117C38.6707 7.87509 38.7264 8.44059 38.6178 8.98616C38.5093 9.53173 38.2414 10.0329 37.8481 10.4262C37.4548 10.8195 36.9536 11.0874 36.4081 11.1959C35.8625 11.3045 35.297 11.2488 34.7831 11.0359C34.2692 10.823 33.8299 10.4625 33.5209 10C33.2118 9.5375 33.0469 8.99373 33.0469 8.43747C33.0477 7.69181 33.3443 6.97692 33.8716 6.44966C34.3988 5.92239 35.1137 5.62581 35.8594 5.62497Z" fill="white"/>
<path d="M35.8594 3.51562C36.0459 3.51562 36.2247 3.44155 36.3566 3.30968C36.4884 3.17782 36.5625 2.99898 36.5625 2.8125V2.10938C36.5625 1.92289 36.4884 1.74405 36.3566 1.61219C36.2247 1.48033 36.0459 1.40625 35.8594 1.40625C35.6729 1.40625 35.4941 1.48033 35.3622 1.61219C35.2303 1.74405 35.1562 1.92289 35.1562 2.10938V2.8125C35.1562 2.99898 35.2303 3.17782 35.3622 3.30968C35.4941 3.44155 35.6729 3.51562 35.8594 3.51562Z" fill="white"/>
<path d="M35.1562 14.0625V14.7656C35.1562 14.9521 35.2303 15.1309 35.3622 15.2628C35.4941 15.3947 35.6729 15.4688 35.8594 15.4688C36.0459 15.4688 36.2247 15.3947 36.3566 15.2628C36.4884 15.1309 36.5625 14.9521 36.5625 14.7656V14.0625C36.5625 13.876 36.4884 13.6972 36.3566 13.5653C36.2247 13.4335 36.0459 13.3594 35.8594 13.3594C35.6729 13.3594 35.4941 13.4335 35.3622 13.5653C35.2303 13.6972 35.1562 13.876 35.1562 14.0625Z" fill="white"/>
<path d="M40.7812 8.4375C40.7812 8.62398 40.8553 8.80282 40.9872 8.93468C41.1191 9.06655 41.2979 9.14062 41.4844 9.14062H42.1875C42.374 9.14062 42.5528 9.06655 42.6847 8.93468C42.8165 8.80282 42.8906 8.62398 42.8906 8.4375C42.8906 8.25102 42.8165 8.07218 42.6847 7.94032C42.5528 7.80845 42.374 7.73438 42.1875 7.73438H41.4844C41.2979 7.73438 41.1191 7.80845 40.9872 7.94032C40.8553 8.07218 40.7812 8.25102 40.7812 8.4375Z" fill="white"/>
<path d="M29.5312 9.14062H30.2344C30.4209 9.14062 30.5997 9.06655 30.7316 8.93468C30.8634 8.80282 30.9375 8.62398 30.9375 8.4375C30.9375 8.25102 30.8634 8.07218 30.7316 7.94032C30.5997 7.80845 30.4209 7.73438 30.2344 7.73438H29.5312C29.3448 7.73438 29.1659 7.80845 29.0341 7.94032C28.9022 8.07218 28.8281 8.25102 28.8281 8.4375C28.8281 8.62398 28.9022 8.80282 29.0341 8.93468C29.1659 9.06655 29.3448 9.14062 29.5312 9.14062Z" fill="white"/>
<path d="M39.8369 5.16311C39.9292 5.16324 40.0207 5.14511 40.106 5.10977C40.1914 5.07443 40.2689 5.02257 40.3341 4.95718L40.8313 4.45998C40.9631 4.32812 41.0372 4.14927 41.0372 3.96279C41.0372 3.7763 40.9631 3.59745 40.8313 3.46559C40.6994 3.33372 40.5206 3.25964 40.3341 3.25964C40.1476 3.25964 39.9688 3.33372 39.8369 3.46559L39.3399 3.96279C39.2415 4.06112 39.1746 4.18641 39.1474 4.3228C39.1203 4.4592 39.1342 4.60058 39.1874 4.72906C39.2407 4.85754 39.3308 4.96736 39.4464 5.04462C39.562 5.12188 39.698 5.16311 39.8371 5.16311H39.8369Z" fill="white"/>
<path d="M31.3847 11.918L30.8875 12.4152C30.8222 12.4804 30.7704 12.558 30.735 12.6433C30.6997 12.7286 30.6815 12.82 30.6815 12.9123C30.6815 13.0047 30.6997 13.0961 30.735 13.1814C30.7704 13.2667 30.8222 13.3443 30.8875 13.4095C30.9528 13.4748 31.0303 13.5266 31.1156 13.562C31.2009 13.5973 31.2923 13.6155 31.3847 13.6155C31.477 13.6155 31.5684 13.5973 31.6537 13.562C31.7391 13.5266 31.8166 13.4748 31.8819 13.4095L32.3791 12.9123C32.4444 12.8471 32.4961 12.7695 32.5315 12.6842C32.5668 12.5989 32.585 12.5075 32.585 12.4152C32.585 12.3228 32.5668 12.2314 32.5315 12.1461C32.4961 12.0608 32.4444 11.9832 32.3791 11.918C32.3138 11.8527 32.2363 11.8009 32.1509 11.7655C32.0656 11.7302 31.9742 11.712 31.8819 11.712C31.7895 11.712 31.6981 11.7302 31.6128 11.7655C31.5275 11.8009 31.45 11.8527 31.3847 11.918Z" fill="white"/>
<path d="M40.3341 11.918C40.2693 11.8508 40.1917 11.7972 40.1059 11.7604C40.0201 11.7235 39.9278 11.7041 39.8345 11.7033C39.7411 11.7025 39.6485 11.7203 39.5621 11.7557C39.4757 11.791 39.3972 11.8432 39.3312 11.9092C39.2652 11.9753 39.213 12.0538 39.1776 12.1402C39.1422 12.2266 39.1245 12.3192 39.1253 12.4125C39.1261 12.5059 39.1455 12.5982 39.1823 12.6839C39.2192 12.7697 39.2727 12.8473 39.3399 12.9122L39.8371 13.4094C39.969 13.5412 40.1478 13.6153 40.3343 13.6153C40.5208 13.6153 40.6996 13.5412 40.8315 13.4094C40.9634 13.2775 41.0374 13.0987 41.0374 12.9122C41.0374 12.7257 40.9634 12.5468 40.8315 12.415L40.3341 11.918Z" fill="white"/>
<path d="M31.3847 4.95701C31.4496 5.02416 31.5272 5.07773 31.6129 5.11458C31.6987 5.15143 31.791 5.17082 31.8844 5.17163C31.9777 5.17245 32.0703 5.15466 32.1567 5.1193C32.2431 5.08395 32.3216 5.03174 32.3877 4.96572C32.4537 4.8997 32.5059 4.8212 32.5412 4.73479C32.5766 4.64837 32.5944 4.55579 32.5936 4.46243C32.5928 4.36907 32.5734 4.2768 32.5365 4.19102C32.4997 4.10523 32.4461 4.02765 32.3789 3.96279L31.8817 3.46559C31.7499 3.33372 31.571 3.25964 31.3845 3.25964C31.1981 3.25964 31.0192 3.33372 30.8873 3.46559C30.7555 3.59745 30.6814 3.7763 30.6814 3.96279C30.6814 4.14927 30.7555 4.32812 30.8873 4.45998L31.3847 4.95701Z" fill="white"/>
</svg>
